<svg xmlns="http://www.w3.org/2000/svg" xmlns:xlink="http://www.w3.org/1999/xlink" viewBox="0 0 1246 324.039"><defs><style>.a{fill:url(#a);}.b{fill:url(#d);}.c{fill:url(#g);}.d{fill:url(#j);}.e{fill:url(#m);}.f{fill:url(#p);}.g{fill:url(#s);}.h{fill:url(#v);}.i{filter:url(#w);}.j{filter:url(#t);}.k{filter:url(#q);}.l{filter:url(#n);}.m{filter:url(#k);}.n{filter:url(#h);}.o{filter:url(#e);}.p{filter:url(#b);}</style><linearGradient id="a" x1="-0.82" y1="0.658" x2="6.393" y2="-0.634" gradientUnits="objectBoundingBox"><stop offset="0" stop-color="#90145a"/><stop offset="0.256" stop-color="#a81d58" stop-opacity="0.992"/><stop offset="0.794" stop-color="#e63452" stop-opacity="0.976"/><stop offset="1" stop-color="#ff3e4f" stop-opacity="0.969"/></linearGradient><filter id="b" x="0" y="0" width="213.509" height="323.872" filterUnits="userSpaceOnUse"><feOffset dx="11" dy="10" input="SourceAlpha"/><feGaussianBlur stdDeviation="3" result="c"/><feFlood/><feComposite operator="in" in2="c"/><feComposite in="SourceGraphic"/></filter><linearGradient id="d" x1="-4.147" y1="1.91" x2="13.832" y2="-3.541" xlink:href="#a"/><filter id="e" x="197.015" y="182.489" width="97.637" height="91.294" filterUnits="userSpaceOnUse"><feOffset dx="11" dy="10" input="SourceAlpha"/><feGaussianBlur stdDeviation="3" result="f"/><feFlood/><feComposite operator="in" in2="f"/><feComposite in="SourceGraphic"/></filter><linearGradient id="g" x1="-2.203" y1="1.021" x2="4.998" y2="-0.271" xlink:href="#a"/><filter id="h" x="299.443" y="0" width="213.848" height="323.872" filterUnits="userSpaceOnUse"><feOffset dx="11" dy="10" input="SourceAlpha"/><feGaussianBlur stdDeviation="3" result="i"/><feFlood/><feComposite operator="in" in2="i"/><feComposite in="SourceGraphic"/></filter><linearGradient id="j" x1="-7.983" y1="3.073" x2="9.995" y2="-2.378" xlink:href="#a"/><filter id="k" x="518.583" y="182.489" width="97.637" height="91.294" filterUnits="userSpaceOnUse"><feOffset dx="11" dy="10" input="SourceAlpha"/><feGaussianBlur stdDeviation="3" result="l"/><feFlood/><feComposite operator="in" in2="l"/><feComposite in="SourceGraphic"/></filter><linearGradient id="m" x1="-3.72" y1="1.221" x2="3.487" y2="-0.071" xlink:href="#a"/><filter id="n" x="610.245" y="0.167" width="213.676" height="323.872" filterUnits="userSpaceOnUse"><feOffset dx="11" dy="10" input="SourceAlpha"/><feGaussianBlur stdDeviation="3" result="o"/><feFlood/><feComposite operator="in" in2="o"/><feComposite in="SourceGraphic"/></filter><linearGradient id="p" x1="-11.66" y1="4.187" x2="6.319" y2="-1.263" xlink:href="#a"/><filter id="q" x="826.794" y="182.489" width="97.637" height="91.294" filterUnits="userSpaceOnUse"><feOffset dx="11" dy="10" input="SourceAlpha"/><feGaussianBlur stdDeviation="3" result="r"/><feFlood/><feComposite operator="in" in2="r"/><feComposite in="SourceGraphic"/></filter><linearGradient id="s" x1="-5.212" y1="1.561" x2="1.989" y2="0.269" xlink:href="#a"/><filter id="t" x="929.223" y="0" width="213.848" height="323.872" filterUnits="userSpaceOnUse"><feOffset dx="11" dy="10" input="SourceAlpha"/><feGaussianBlur stdDeviation="3" result="u"/><feFlood/><feComposite operator="in" in2="u"/><feComposite in="SourceGraphic"/></filter><linearGradient id="v" x1="-15.496" y1="5.35" x2="2.482" y2="-0.1" xlink:href="#a"/><filter id="w" x="1148.363" y="182.489" width="97.637" height="91.294" filterUnits="userSpaceOnUse"><feOffset dx="11" dy="10" input="SourceAlpha"/><feGaussianBlur stdDeviation="3" result="x"/><feFlood/><feComposite operator="in" in2="x"/><feComposite in="SourceGraphic"/></filter></defs><g class="p" transform="matrix(1, 0, 0, 1, 0, 0)"><path class="a" d="M39.236,285.338c0,12.522-5.51,19.535-19.535,19.535S0,297.86,0,285.338V0H130.063c18.032,0,30.888,2.671,45.08,16.028,16.863,15.694,18.366,30.22,18.366,51.424v53.261c0,20.035-1.5,34.06-16.028,50.089-15.36,17.2-31.389,18.867-52.593,18.867H39.236Zm0-134.905h86.987c23.041,0,28.217-5.844,28.217-28.217V67.453c0-22.373-5.176-28.217-28.217-28.217H39.236Z" transform="translate(0)"/></g><g class="o" transform="matrix(1, 0, 0, 1, 0, 0)"><path class="b" d="M142.71,181.594c-8.682,0-14.86,0-20.369-7.513C118,168.238,118,163.9,118,156.383V134.511c0-7.513,0-11.687,4.341-17.7,5.51-7.513,11.687-7.513,20.369-7.513h28.217c8.682,0,14.86,0,20.369,7.513,4.341,5.844,4.341,10.185,4.341,17.7v21.872c0,7.513,0,11.687-4.341,17.7-5.51,7.513-11.687,7.513-20.369,7.513Z" transform="translate(79.01 73.19)"/></g><g class="n" transform="matrix(1, 0, 0, 1, 0, 0)"><path class="c" d="M256.738,20.035C259.91,9.517,264.251,0,276.773,0c12.856,0,17.7,9.851,20.369,20.035l75.634,265.3c2.671,9.35-7.847,19.535-18.867,19.535-12.188,0-18.366-10.185-21.2-19.535L318.18,238.254H234.7l-14.86,47.083c-2.671,9.35-9.016,19.535-21.2,19.535-11.019,0-21.538-10.185-18.867-19.535Zm20.369,72.8h-.835L245.718,199.018h61.609Z" transform="translate(120.09)"/></g><g class="m" transform="matrix(1, 0, 0, 1, 0, 0)"><path class="d" d="M335.31,181.594c-8.682,0-14.86,0-20.369-7.513-4.341-5.844-4.341-10.185-4.341-17.7V134.511c0-7.513,0-11.687,4.341-17.7,5.51-7.513,11.687-7.513,20.369-7.513h28.216c8.682,0,14.86,0,20.369,7.513,4.341,5.844,4.341,10.185,4.341,17.7v21.872c0,7.513,0,11.687-4.341,17.7-5.51,7.513-11.687,7.513-20.369,7.513Z" transform="translate(207.98 73.19)"/></g><g class="l" transform="matrix(1, 0, 0, 1, 0, 0)"><path class="e" d="M404.068,39.169H389.542c-12.856,0-23.875-4.675-23.875-19.535C365.667,5.443,376.186.1,388.374.1h65.449c30.554,0,45.914,12.522,59.1,39.236l34.561,68.955c7.847,16.028,11.687,27.382,11.687,45.414,0,15.694-4.341,29.051-11.353,43.076l-35.73,71.293c-13.691,27.883-31.389,36.9-61.943,36.9H385.035c-10.185,0-19.535-5.51-19.535-19.535,0-14.192,9.35-19.535,19.535-19.535H403.9V39.169ZM443.3,265.736h7.513c16.529,0,20.369-2,27.382-16.529l34.561-69.79c4.341-9.016,7.513-15.694,7.513-25.545,0-13.357-4.341-20.7-9.851-32.057L477.865,55.531C469.684,38.668,466.178,39,448.146,39h-4.675V265.736Z" transform="translate(244.75 0.07)"/></g><g class="k" transform="matrix(1, 0, 0, 1, 0, 0)"><path class="f" d="M519.91,181.594c-8.682,0-14.86,0-20.369-7.513-4.341-5.844-4.341-10.185-4.341-17.7V134.511c0-7.513,0-11.687,4.341-17.7,5.51-7.513,11.687-7.513,20.369-7.513h28.217c8.682,0,14.86,0,20.369,7.513,4.341,5.844,4.341,10.185,4.341,17.7v21.872c0,7.513,0,11.687-4.341,17.7-5.51,7.513-11.687,7.513-20.369,7.513Z" transform="translate(331.59 73.19)"/></g><g class="j" transform="matrix(1, 0, 0, 1, 0, 0)"><path class="g" d="M633.938,20.035C637.11,9.517,641.451,0,653.973,0c12.856,0,17.7,9.851,20.369,20.035l75.634,265.3c2.671,9.35-7.847,19.535-18.867,19.535-12.188,0-18.366-10.185-21.2-19.535L695.38,238.254H611.9l-14.86,47.083c-2.671,9.35-9.016,19.535-21.2,19.535-11.019,0-21.538-10.185-18.867-19.535Zm20.369,72.8h-.835L622.918,199.018h61.609Z" transform="translate(372.67)"/></g><g class="i" transform="matrix(1, 0, 0, 1, 0, 0)"><path class="h" d="M712.51,181.594c-8.682,0-14.86,0-20.369-7.513-4.341-5.844-4.341-10.185-4.341-17.7V134.511c0-7.513,0-11.687,4.341-17.7,5.51-7.513,11.687-7.513,20.369-7.513h28.216c8.682,0,14.86,0,20.369,7.513,4.341,5.844,4.341,10.185,4.341,17.7v21.872c0,7.513,0,11.687-4.341,17.7-5.51,7.513-11.687,7.513-20.369,7.513Z" transform="translate(460.56 73.19)"/></g></svg>